:version 1.10
:name ASF
:units
  mass 1
  length 1
  angle deg
:documentation
  ASF file generated by Kaydara
:root
  axis xyz
  order  tx ty tz rx ry rz
  position 0 0 0
  orientation 0 0 0
:bonedata
  begin
    id 1
    name RightUpLegDummy
    direction -0.65628 -0.754516 0.00165102
    length 4.76918
    axis 0 0 0 xyz
  end
  begin
    id 2
    name RightUpLeg
    direction -0.145584 -0.923362 0.355256
    length 17.9961
    axis -24.7611 -13.1006 1.78531 xyz
    dof rx ry rz
  end
  begin
    id 3
    name RightLeg
    direction 0.263379 0.172355 -0.949171
    length 13.3386
    axis 89.6202 -21.1929 12.3855 xyz
    dof rx ry rz
  end
  begin
    id 4
    name RightFoot
    direction 0.224283 -0.968777 -0.105675
    length 5.86697
    axis 56.995 -39.6905 17.3365 xyz
    dof rx ry rz
  end
  begin
    id 5
    name RightToes
    direction -0.0806345 -0.9037 0.420506
    length 4.75197
    axis 146.825 -39.7828 17.6019 xyz
    dof rx ry rz
  end
  begin
    id 6
    name SpineDummy
    direction -3.39852e-014 1 9.33296e-014
    length 8.13779
    axis 0 0 0 xyz
  end
  begin
    id 7
    name Spine
    direction -0.156609 0.733703 0.661176
    length 7.14978
    axis 41.2365 5.68757 17.0844 xyz
    dof rx ry rz
  end
  begin
    id 8
    name Spine1
    direction 0 0 0
    length 0
    axis 42.8809 47.8308 -3.36039 xyz
    dof rx ry rz
  end
  begin
    id 9
    name HEadDummy
    direction 0.546431 0.701947 0.456819
    length 3.55512
    axis 42.8809 47.8308 -3.36039 xyz
  end
  begin
    id 10
    name HEad
    direction 0.23444 0.828559 0.508457
    length 7.35827
    axis 51.1864 49.2662 27.4903 xyz
    dof rx ry rz
  end
  begin
    id 11
    name LeftShoulder1Dummy
    direction 0.431183 0.475873 -0.766568
    length 2.49352
    axis 42.8809 47.8308 -3.36039 xyz
  end
  begin
    id 12
    name LeftShoulder1
    direction 0.268187 -0.383402 -0.883786
    length 4.48604
    axis -119.517 0.106469 35.1736 xyz
    dof rx ry rz
  end
  begin
    id 13
    name LeftArm
    direction 0.380567 -0.703221 -0.600541
    length 10.1142
    axis -5.41825 36.2925 7.8293 xyz
    dof rx ry rz
  end
  begin
    id 14
    name LeftForeArm
    direction 0.541071 -0.732356 -0.413396
    length 9.39839
    axis 4.65387 33.7604 7.81644 xyz
    dof rx ry rz
  end
  begin
    id 15
    name LeftHand
    direction 0.847511 -0.389379 -0.360707
    length 3.66142
    axis 7.65593 21.1436 -24.6758 xyz
    dof rx ry rz
  end
  begin
    id 16
    name RightShoulderDummy
    direction -0.692546 0.541855 0.476208
    length 2.49352
    axis 42.8809 47.8308 -3.36039 xyz
  end
  begin
    id 17
    name RightShoulder
    direction -0.870808 -0.316653 0.376065
    length 4.48602
    axis 141.571 51.133 -100.254 xyz
    dof rx ry rz
  end
  begin
    id 18
    name RightArm
    direction 0.366897 -0.87275 0.322015
    length 10.1142
    axis 92.3258 71.2036 138.917 xyz
    dof rx ry rz
  end
  begin
    id 19
    name RightForeArm
    direction 0.702487 -0.694568 0.155197
    length 9.39835
    axis 153.863 41.5092 -176.604 xyz
    dof rx ry rz
  end
  begin
    id 20
    name RightHand
    direction 0.79502 -0.601276 0.0800636
    length 3.66142
    axis 154.247 4.59222 142.9 xyz
    dof rx ry rz
  end
  begin
    id 21
    name LeftUpLegDummy
    direction 0.65628 -0.754516 0.00165102
    length 4.76919
    axis 0 0 0 xyz
  end
  begin
    id 22
    name LeftUpLeg
    direction -0.1277 -0.689368 0.713067
    length 17.9961
    axis -48.3385 -17.8675 0.791927 xyz
    dof rx ry rz
  end
  begin
    id 23
    name LeftLeg
    direction 0.109849 -0.991246 -0.0732378
    length 13.3386
    axis -2.05791 -7.30784 1.72042 xyz
    dof rx ry rz
  end
  begin
    id 24
    name LeftFoot
    direction 0.0448355 -0.272614 0.961078
    length 5.86697
    axis -18.7733 -7.89606 10.2113 xyz
    dof rx ry rz
  end
  begin
    id 25
    name LeftToes
    direction -0.18506 0.293668 0.937823
    length 4.75197
    axis 71.2267 -7.89606 10.2113 xyz
    dof rx ry rz
  end
:hierarchy
  begin
    root RightUpLegDummy SpineDummy LeftUpLegDummy
    RightUpLegDummy RightUpLeg
    RightUpLeg RightLeg
    RightLeg RightFoot
    RightFoot RightToes
    SpineDummy Spine
    Spine Spine1
    Spine1 HEadDummy LeftShoulder1Dummy RightShoulderDummy
    HEadDummy HEad
    LeftShoulder1Dummy LeftShoulder1
    LeftShoulder1 LeftArm
    LeftArm LeftForeArm
    LeftForeArm LeftHand
    RightShoulderDummy RightShoulder
    RightShoulder RightArm
    RightArm RightForeArm
    RightForeArm RightHand
    LeftUpLegDummy LeftUpLeg
    LeftUpLeg LeftLeg
    LeftLeg LeftFoot
    LeftFoot LeftToes
  end

:SAMPLES-PER-SECOND 30
:FULLY-SPECIFIED
:DEGREES
410
root  -15.9087 34.9269 -17.2325 -29.7291 -10.1122 -155.467
RightUpLeg  20.9414 30.4222 -33.5708
RightLeg  -64.8542 -22.806 11.8785
RightFoot  8.99815 9.19929 -22.1833
RightToes  -1.27222e-014 -6.36111e-015 6.36111e-015
Spine  -5.05171 14.517 15.8027
Spine1  -17.2652 -6.31148 -15.5399
HEad  1.92727 -27.7941 4.08228
LeftShoulder1  6.36111e-015 -1.33558e-015 6.49777e-015
LeftArm  -93.3113 -28.223 79.1313
LeftForeArm  -6.48433 8.92217 0.780677
LeftHand  11.6372 21.2695 11.0249
RightShoulder  -4.77083e-015 -6.36111e-015 -3.18055e-015
RightArm  0.365341 30.4687 -36.6125
RightForeArm  -10.0844 -14.2561 -3.94465
RightHand  1.85556 -11.5148 0.558222
LeftUpLeg  -27.5737 44.5362 29.308
LeftLeg  -14.8614 -9.95925 -0.834749
LeftFoot  -5.52994 4.71167 -19.033
LeftToes  1.27222e-014 1.09105e-011 6.96064e-012
411
root  -17.876 35.2953 -17.2737 -37.9642 -27.2103 -148.235
RightUpLeg  19.4324 31.3072 -33.0127
RightLeg  -66.0034 -23.3044 13.1664
RightFoot  9.72621 8.76613 -21.3828
RightToes  -1.27222e-014 -6.36111e-015 6.36111e-015
Spine  -1.71239 12.9448 16.3311
Spine1  -19.1885 -7.21533 -13.0679
HEad  4.51 -22.1888 5.78508
LeftShoulder1  6.36111e-015 -1.33558e-015 6.49777e-015
LeftArm  -89.5512 -25.6555 80.8323
LeftForeArm  2.07794 -5.70747 0.695361
LeftHand  12.4951 20.6839 14.6487
RightShoulder  -4.77083e-015 -6.36111e-015 -3.18055e-015
RightArm  9.61526 40.32 -35.1803
RightForeArm  -23.7583 2.64734 -16.7563
RightHand  -0.576496 -1.22497 5.73031
LeftUpLeg  -33.2117 41.3918 25.2035
LeftLeg  -11.5637 -7.15085 -1.18335
LeftFoot  -7.09221 4.3811 -18.7772
LeftToes  1.27222e-014 1.09105e-011 6.96064e-012
412
root  -19.7287 35.3719 -16.4542 -50.0598 -42.3994 -136.609
RightUpLeg  14.5986 28.7651 -35.267
RightLeg  -63.1651 -25.0761 13.8097
RightFoot  9.23034 8.6649 -21.1511
RightToes  -1.27222e-014 -6.36111e-015 6.36111e-015
Spine  1.17845 10.5365 15.1581
Spine1  -21.6468 -9.01937 -10.5533
HEad  6.94641 -20.261 7.86247
LeftShoulder1  6.36111e-015 -1.33558e-015 6.49777e-015
LeftArm  -85.573 -24.5748 87.2128
LeftForeArm  9.80217 -13.3474 -2.23963
LeftHand  15.4774 21.9283 21.3178
RightShoulder  -4.77083e-015 -6.36111e-015 -3.18055e-015
RightArm  8.89966 41.5129 -46.4299
RightForeArm  -39.4208 10.6976 -29.3527
RightHand  1.77151 -2.79016 -8.24213
LeftUpLeg  -37.023 38.7767 20.5388
LeftLeg  -7.93703 -7.11332 -1.14325
LeftFoot  -8.02031 4.10314 -18.245
LeftToes  1.27222e-014 1.09105e-011 6.96064e-012
413
root  -20.9178 35.2302 -14.9246 -70.8664 -53.7924 -115.59
RightUpLeg  8.32244 23.7394 -38.7594
RightLeg  -57.483 -26.1606 12.046
RightFoot  9.35678 9.12288 -22.0527
RightToes  -1.27222e-014 -6.36111e-015 6.36111e-015
Spine  2.18474 8.51562 13.8407
Spine1  -21.7222 -10.3009 -8.91151
HEad  9.5873 -22.7024 9.16335
LeftShoulder1  6.36111e-015 -1.33558e-015 6.49777e-015
LeftArm  -81.1848 -24.9927 93.5735
LeftForeArm  15.9941 -17.1489 -6.09879
LeftHand  13.725 21.8126 16.4877
RightShoulder  -4.77083e-015 -6.36111e-015 -3.18055e-015
RightArm  9.21182 37.2813 -60.989
RightForeArm  -50.6931 6.15035 -27.7344
RightHand  7.88925 -9.61267 -27.513
LeftUpLeg  -37.2684 38.429 16.1666
LeftLeg  -5.73359 -7.85425 -1.13926
LeftFoot  -5.19618 4.21666 -16.8399
LeftToes  1.27222e-014 1.09105e-011 6.96064e-012
414
root  -21.086 34.848 -13.1933 -103.79 -57.5794 -82.0337
RightUpLeg  4.5357 19.021 -40.3767
RightLeg  -57.0816 -21.9296 7.4389
RightFoot  13.3776 7.62585 -19.5799
RightToes  -1.27222e-014 -6.36111e-015 6.36111e-015
Spine  0.868425 7.6932 14.1895
Spine1  -19.0015 -9.921 -6.7947
HEad  13.2911 -29.6369 7.64623
LeftShoulder1  6.36111e-015 -1.33558e-015 6.49777e-015
LeftArm  -74.2963 -25.684 95.8703
LeftForeArm  23.1536 -25.6104 -11.1463
LeftHand  9.28963 19.0509 6.77393
RightShoulder  -4.77083e-015 -6.36111e-015 -3.18055e-015
RightArm  14.1282 29.2823 -71.9006
RightForeArm  -55.9022 1.35198 -21.8426
RightHand  10.9681 -10.4633 -37.8123
LeftUpLeg  -30.7455 37.8609 16.3083
LeftLeg  -8.79842 -6.97402 -1.15155
LeftFoot  -0.400648 4.47502 -15.2064
LeftToes  1.27222e-014 1.09105e-011 6.96064e-012
415
root  -20.2374 34.2592 -11.9587 -135.917 -49.5579 -48.3739
RightUpLeg  5.58356 15.0418 -39.0473
RightLeg  -69.8928 -14.0334 -0.0965485
RightFoot  20.6746 0.454666 -9.33794
RightToes  -1.27222e-014 -6.36111e-015 6.36111e-015
Spine  -2.14859 7.75019 15.4613
Spine1  -16.5481 -8.29103 -1.21915
HEad  19.9933 -37.8538 0.836289
LeftShoulder1  6.36111e-015 -1.33558e-015 6.49777e-015
LeftArm  -63.7981 -26.7956 94.8096
LeftForeArm  36.9983 -38.1439 -21.3184
LeftHand  11.0062 18.062 14.3924
RightShoulder  -4.77083e-015 -6.36111e-015 -3.18055e-015
RightArm  15.2855 16.3048 -79.6638
RightForeArm  -55.4109 1.53248 -22.0721
RightHand  12.9057 -10.1612 -45.2411
LeftUpLeg  -16.8309 35.6665 23.6845
LeftLeg  -18.7939 -7.58865 -1.20724
LeftFoot  3.91779 3.86213 -11.5581
LeftToes  1.27222e-014 1.09105e-011 6.96064e-012
416
root  -19.1751 34.3976 -11.7723 -154.175 -30.9633 -26.8017
RightUpLeg  9.91104 8.30918 -36.7087
RightLeg  -91.17 -11.2057 -7.19252
RightFoot  27.4411 -10.7252 3.28807
RightToes  -1.27222e-014 -6.36111e-015 6.36111e-015
Spine  -3.94463 7.00011 12.5436
Spine1  -17.693 -6.251 7.43415
HEad  29.7264 -42.297 -10.7013
LeftShoulder1  6.36111e-015 -1.33558e-015 6.49777e-015
LeftArm  -50.8036 -30.0637 93.5699
LeftForeArm  50.5942 -41.5623 -31.7021
LeftHand  14.6012 19.2637 23.6016
RightShoulder  -4.77083e-015 -6.36111e-015 -3.18055e-015
RightArm  11.6999 1.2387 -85.7634
RightForeArm  -53.5158 2.86097 -23.7408
RightHand  14.7393 -11.404 -48.685
LeftUpLeg  1.99064 17.1361 37.1554
LeftLeg  -31.5855 0.0564301 -9.10866
LeftFoot  7.31736 2.16781 -5.93965
LeftToes  1.27222e-014 1.09105e-011 6.96064e-012
417
root  -18.5766 35.3082 -12.3452 -160.708 -6.40387 -13.8048
RightUpLeg  12.6182 0.379598 -35.672
RightLeg  -104.932 -9.95521 -10.967
RightFoot  30.2975 -15.2228 7.25541
RightToes  -1.27222e-014 -6.36111e-015 6.36111e-015
Spine  -5.14882 4.75318 5.15238
Spine1  -22.4228 -4.58327 17.7657
HEad  37.2682 -41.9953 -21.5046
LeftShoulder1  6.36111e-015 -1.33558e-015 6.49777e-015
LeftArm  -39.5206 -33.3987 95.1208
LeftForeArm  49.0434 -33.1439 -31.3366
LeftHand  10.2312 19.8203 8.76677
RightShoulder  -4.77083e-015 -6.36111e-015 -3.18055e-015
RightArm  7.09404 -4.86026 -86.2493
RightForeArm  -50.4703 4.24688 -25.1254
RightHand  13.6197 -11.0568 -45.795
LeftUpLeg  18.2854 7.61617 47.0243
LeftLeg  -39.5394 3.84961 -9.13271
LeftFoot  7.75899 0.470882 -1.29858
LeftToes  1.27222e-014 1.09105e-011 6.96064e-012
418
root  -18.5427 36.2746 -13.3087 -158.405 17.1798 -5.15367
RightUpLeg  12.7113 2.15709 -34.0569
RightLeg  -110.23 -7.86993 -5.90506
RightFoot  27.539 -12.0356 4.87407
RightToes  -1.27222e-014 -6.36111e-015 6.36111e-015
Spine  -8.86239 1.1099 -1.37996
Spine1  -25.7591 -4.63292 25.6191
HEad  39.8986 -39.8279 -27.6956
LeftShoulder1  6.36111e-015 -1.33558e-015 6.49777e-015
LeftArm  -34.933 -33.5156 95.1447
LeftForeArm  36.8106 -18.9817 -19.8601
LeftHand  5.97544 20.0507 -6.53728
RightShoulder  -4.77083e-015 -6.36111e-015 -3.18055e-015
RightArm  1.17161 2.83103 -81.7368
RightForeArm  -42.7552 6.86823 -26.3253
RightHand  12.0533 -11.2757 -40.0974
LeftUpLeg  30.0347 4.5754 52.6381
LeftLeg  -41.1994 6.04876 -10.1489
LeftFoot  6.258 -0.65344 1.82301
LeftToes  1.27222e-014 1.09105e-011 6.96064e-012
419
root  -19.1042 36.9815 -14.178 -148.867 37.2317 3.60222
RightUpLeg  10.1574 2.88291 -33.3013
RightLeg  -112.451 -8.49156 -2.95572
RightFoot  25.3936 -8.69699 1.66975
RightToes  -1.27222e-014 -6.36111e-015 6.36111e-015
Spine  -14.3741 -3.17081 -4.4062
Spine1  -27.3519 -8.03189 26.1088
HEad  40.9449 -37.5294 -30.9111
LeftShoulder1  6.36111e-015 -1.33558e-015 6.49777e-015
LeftArm  -33.7657 -26.5406 87.1927
LeftForeArm  32.6235 -16.0224 -11.3136
LeftHand  2.99966 7.70922 -0.000369301
RightShoulder  -4.77083e-015 -6.36111e-015 -3.18055e-015
RightArm  -2.98227 17.4321 -80.9105
RightForeArm  -34.2994 10.4118 -26.8014
RightHand  9.09468 -11.6133 -28.8618
LeftUpLeg  35.0367 4.37271 54.1505
LeftLeg  -40.9341 7.63139 -13.6257
LeftFoot  5.18317 -0.973389 2.81639
LeftToes  1.27222e-014 1.09105e-011 6.96064e-012
420
root  -20.0089 37.2984 -14.6392 -129.627 54.2632 18.6878
RightUpLeg  4.46992 1.81646 -32.5085
RightLeg  -111.966 -8.72247 -3.3617
RightFoot  22.75 -7.23255 0.932041
RightToes  -1.27222e-014 -6.36111e-015 6.36111e-015
Spine  -20.2738 -6.58092 -4.97912
Spine1  -30.3997 -12.485 23.5981
HEad  41.8263 -35.7741 -33.1218
LeftShoulder1  6.36111e-015 -1.33558e-015 6.49777e-015
LeftArm  -28.2115 -8.97795 70.147
LeftForeArm  39.5964 -23.5251 -7.4875
LeftHand  3.76157 7.91434 4.11539
RightShoulder  -4.77083e-015 -6.36111e-015 -3.18055e-015
RightArm  -4.7215 29.5326 -84.6705
RightForeArm  -24.3961 15.1628 -26.0323
RightHand  6.44656 -10.2519 -20.5307
LeftUpLeg  35.4465 4.44821 53.4358
LeftLeg  -42.3213 10.63 -17.4947
LeftFoot  4.71378 -1.03484 3.03954
LeftToes  1.27222e-014 1.09105e-011 6.96064e-012
